<svg width="313" height="171" viewBox="0 0 313 171" fill="none" xmlns="http://www.w3.org/2000/svg">
<g filter="url(#filter0_f_1_166)">
<path d="M6.5 156.5C6.5 73.6573 73.6573 6.5 156.5 6.5C239.343 6.5 306.5 73.6573 306.5 156.5" stroke="url(#paint0_linear_1_166)" stroke-width="3" stroke-linecap="round"/>
</g>
<g filter="url(#filter1_f_1_166)">
<path d="M6.5 156.5C6.5 73.6573 73.6573 6.5 156.5 6.5C239.343 6.5 306.5 73.6573 306.5 156.5" stroke="url(#paint1_linear_1_166)" stroke-linecap="round"/>
</g>
<g filter="url(#filter2_f_1_166)">
<g filter="url(#filter3_f_1_166)">
<path d="M6.5 159.793C6.5 76.9504 73.6573 9.79315 156.5 9.79315C239.343 9.79315 306.5 76.9504 306.5 159.793" stroke="url(#paint2_linear_1_166)" stroke-width="3" stroke-linecap="round"/>
</g>
<g filter="url(#filter4_f_1_166)">
<path d="M6.5 159.793C6.5 76.9504 73.6573 9.79315 156.5 9.79315C239.343 9.79315 306.5 76.9504 306.5 159.793" stroke="url(#paint3_linear_1_166)" stroke-linecap="round"/>
</g>
</g>
<g filter="url(#filter5_f_1_166)">
<path d="M6.5 164.321C6.5 81.4785 73.6573 14.3213 156.5 14.3213C239.343 14.3213 306.5 81.4785 306.5 164.321" stroke="url(#paint4_linear_1_166)" stroke-width="3" stroke-linecap="round"/>
</g>
<g filter="url(#filter6_f_1_166)">
<path d="M6.5 164.321C6.5 81.4785 73.6573 14.3212 156.5 14.3212C239.343 14.3212 306.5 81.4785 306.5 164.321" stroke="url(#paint5_linear_1_166)" stroke-width="2" stroke-linecap="round"/>
</g>
<defs>
<filter id="filter0_f_1_166" x="0" y="0" width="313" height="163" filterUnits="userSpaceOnUse" color-interpolation-filters="sRGB">
<feFlood flood-opacity="0" result="BackgroundImageFix"/>
<feBlend mode="normal" in="SourceGraphic" in2="BackgroundImageFix" result="shape"/>
<feGaussianBlur stdDeviation="2.5" result="effect1_foregroundBlur_1_166"/>
</filter>
<filter id="filter1_f_1_166" x="4" y="4" width="305" height="155" filterUnits="userSpaceOnUse" color-interpolation-filters="sRGB">
<feFlood flood-opacity="0" result="BackgroundImageFix"/>
<feBlend mode="normal" in="SourceGraphic" in2="BackgroundImageFix" result="shape"/>
<feGaussianBlur stdDeviation="1" result="effect1_foregroundBlur_1_166"/>
</filter>
<filter id="filter2_f_1_166" x="4" y="7.29315" width="305" height="155" filterUnits="userSpaceOnUse" color-interpolation-filters="sRGB">
<feFlood flood-opacity="0" result="BackgroundImageFix"/>
<feBlend mode="normal" in="SourceGraphic" in2="BackgroundImageFix" result="shape"/>
<feGaussianBlur stdDeviation="0.5" result="effect1_foregroundBlur_1_166"/>
</filter>
<filter id="filter3_f_1_166" x="0" y="3.29315" width="313" height="163" filterUnits="userSpaceOnUse" color-interpolation-filters="sRGB">
<feFlood flood-opacity="0" result="BackgroundImageFix"/>
<feBlend mode="normal" in="SourceGraphic" in2="BackgroundImageFix" result="shape"/>
<feGaussianBlur stdDeviation="2.5" result="effect1_foregroundBlur_1_166"/>
</filter>
<filter id="filter4_f_1_166" x="2" y="5.29315" width="309" height="159" filterUnits="userSpaceOnUse" color-interpolation-filters="sRGB">
<feFlood flood-opacity="0" result="BackgroundImageFix"/>
<feBlend mode="normal" in="SourceGraphic" in2="BackgroundImageFix" result="shape"/>
<feGaussianBlur stdDeviation="2" result="effect1_foregroundBlur_1_166"/>
</filter>
<filter id="filter5_f_1_166" x="0" y="7.82126" width="313" height="163" filterUnits="userSpaceOnUse" color-interpolation-filters="sRGB">
<feFlood flood-opacity="0" result="BackgroundImageFix"/>
<feBlend mode="normal" in="SourceGraphic" in2="BackgroundImageFix" result="shape"/>
<feGaussianBlur stdDeviation="2.5" result="effect1_foregroundBlur_1_166"/>
</filter>
<filter id="filter6_f_1_166" x="1.5" y="9.32123" width="310" height="160" filterUnits="userSpaceOnUse" color-interpolation-filters="sRGB">
<feFlood flood-opacity="0" result="BackgroundImageFix"/>
<feBlend mode="normal" in="SourceGraphic" in2="BackgroundImageFix" result="shape"/>
<feGaussianBlur stdDeviation="2" result="effect1_foregroundBlur_1_166"/>
</filter>
<linearGradient id="paint0_linear_1_166" x1="156.5" y1="-4" x2="152" y2="147.5" gradientUnits="userSpaceOnUse">
<stop stop-color="#8FD0C4"/>
<stop offset="1" stop-color="#F7F7F7" stop-opacity="0"/>
</linearGradient>
<linearGradient id="paint1_linear_1_166" x1="156.5" y1="-4" x2="152" y2="147.5" gradientUnits="userSpaceOnUse">
<stop stop-color="#CBE0EC"/>
<stop offset="0.601266" stop-color="#83D1FC" stop-opacity="0"/>
</linearGradient>
<linearGradient id="paint2_linear_1_166" x1="156.5" y1="-0.706848" x2="152" y2="150.793" gradientUnits="userSpaceOnUse">
<stop stop-color="#E5EFBF"/>
<stop offset="1" stop-color="#F7F7F7" stop-opacity="0"/>
</linearGradient>
<linearGradient id="paint3_linear_1_166" x1="156.5" y1="-0.706848" x2="152" y2="150.793" gradientUnits="userSpaceOnUse">
<stop stop-color="#F7D888" stop-opacity="0.4"/>
<stop offset="1" stop-color="#F7F7F7" stop-opacity="0"/>
</linearGradient>
<linearGradient id="paint4_linear_1_166" x1="156.5" y1="3.82126" x2="152" y2="155.321" gradientUnits="userSpaceOnUse">
<stop stop-color="#FFC79E"/>
<stop offset="1" stop-color="#F7F7F7" stop-opacity="0"/>
</linearGradient>
<linearGradient id="paint5_linear_1_166" x1="156.5" y1="3.82123" x2="152" y2="155.321" gradientUnits="userSpaceOnUse">
<stop stop-color="#D4C0B9" stop-opacity="0.25"/>
<stop offset="1" stop-color="#F7F7F7" stop-opacity="0"/>
</linearGradient>
</defs>
</svg>
